<?xml version="1.0" encoding="utf-8"?>
<!-- Generator: Adobe Illustrator 17.0.0, SVG Export Plug-In . SVG Version: 6.00 Build 0)  -->
<!DOCTYPE svg PUBLIC "-//W3C//DTD SVG 1.1//EN" "http://www.w3.org/Graphics/SVG/1.1/DTD/svg11.dtd">
<svg version="1.1" id="Layer_1" xmlns="http://www.w3.org/2000/svg" xmlns:xlink="http://www.w3.org/1999/xlink" x="0px" y="0px"
	 width="640px" height="480px" viewBox="0 0 640 480" enable-background="new 0 0 640 480" xml:space="preserve">
<g>
	<path fill="none" stroke="#000000" stroke-width="10" d="M338.3,446.119c116.44,0,210.823-94.394,210.823-210.823
		c0-116.44-94.384-210.823-210.823-210.823s-210.823,94.384-210.823,210.823C127.476,351.725,221.86,446.119,338.3,446.119z"/>
</g>
<path d="M299,378h63V250h35l5.733-53H365c0,0-8.64-50.878,11.236-52.606C394.346,142.819,403,143.5,403,143.5v-44
	c0,0-45.691-4.733-65.25,0c-26.081,6.311-34.163,20.214-40.254,35.445C291.406,150.175,296.5,198,296.5,198H254v52h45V378z"/>
<g id="Layer_2">
</g>
</svg>
