<?xml version="1.0" encoding="utf-8"?>
<!-- Generator: Adobe Illustrator 17.0.0, SVG Export Plug-In . SVG Version: 6.00 Build 0)  -->
<!DOCTYPE svg PUBLIC "-//W3C//DTD SVG 1.1//EN" "http://www.w3.org/Graphics/SVG/1.1/DTD/svg11.dtd">
<svg version="1.1" id="Layer_1" xmlns="http://www.w3.org/2000/svg" xmlns:xlink="http://www.w3.org/1999/xlink" x="0px" y="0px"
	 width="640px" height="480px" viewBox="0 0 640 480" enable-background="new 0 0 640 480" xml:space="preserve">
<g>
	<path fill="none" stroke="#000000" stroke-width="10" stroke-miterlimit="10" d="M338.3,446.119
		c116.44,0,210.823-94.394,210.823-210.823c0-116.44-94.384-210.823-210.823-210.823s-210.823,94.384-210.823,210.823
		C127.476,351.725,221.86,446.119,338.3,446.119z"/>
</g>
<g>
	<path d="M390.2,130.034h-20.354c15.537,12.933,23.308,27.726,23.308,44.383c0,10.74-2.846,20.164-8.535,28.27
		c-3.725,5.262-10.069,11.402-19.041,18.41c-6.131,6.14-9.192,11.51-9.192,16.112c0,5.043,2.841,9.756,8.535,14.138l11.818,9.202
		c9.194,7.012,15.647,13.261,19.37,18.74c5.469,7.889,8.208,16.984,8.208,27.284c0,16.656-7.336,30.901-21.996,42.741
		c-16.2,12.926-37.648,19.395-64.347,19.395c-22.545,0-40.274-4.817-53.184-14.446c-11.598-8.535-17.401-19.368-17.401-32.501
		c0-16.635,8.424-29.989,25.279-40.054c13.569-8.098,34.471-13.131,62.707-15.101c-6.566-8.372-9.849-15.677-9.849-21.908
		c0-3.222,1.092-7.409,3.283-12.563c-4.817,0-8.322,0-10.506,0c-16.635,0-30.096-5.361-40.381-16.087
		c-9.414-9.849-14.118-21.668-14.118-35.457c0-17.508,7.058-32.224,21.176-44.156c14.118-11.927,33.651-17.893,58.602-17.893h67.629
		L390.2,130.034z M382.321,319.463c0-7.878-2.848-14.993-8.537-21.339c-4.38-4.817-13.459-12.147-27.248-21.996
		c-1.754-0.22-4.268-0.328-7.552-0.328c-12.695,0-24.185,1.749-34.471,5.254c-18.826,6.566-28.234,17.836-28.234,33.814
		c0,11.818,5.304,21.448,15.923,28.891c10.613,7.438,24.566,11.161,41.858,11.161c15.317,0,27.357-3.396,36.112-10.178
		C378.268,338.393,382.321,329.969,382.321,319.463z M333.732,222.943c8.751,0,16.194-3.063,22.325-9.192
		c5.468-5.468,8.207-13.461,8.207-23.965c0-13.789-3.503-26.808-10.505-39.068c-8.1-14.225-18.385-21.339-30.861-21.339
		c-11.382,0-19.81,4.817-25.279,14.445c-3.281,5.474-4.924,12.368-4.924,20.684c0,13.352,3.283,25.828,9.849,37.426
		C310.423,215.942,320.815,222.943,333.732,222.943z"/>
</g>
<line fill="none" stroke="#000000" stroke-width="8" stroke-miterlimit="10" x1="374" y1="231" x2="462" y2="231"/>
<line fill="none" stroke="#000000" stroke-width="8" stroke-miterlimit="10" x1="418" y1="274" x2="418" y2="186"/>
<g id="Layer_2">
</g>
</svg>
