<?xml version="1.0" encoding="utf-8"?>
<!-- Generator: Adobe Illustrator 17.0.0, SVG Export Plug-In . SVG Version: 6.00 Build 0)  -->
<!DOCTYPE svg PUBLIC "-//W3C//DTD SVG 1.1//EN" "http://www.w3.org/Graphics/SVG/1.1/DTD/svg11.dtd">
<svg version="1.1" id="Layer_1" xmlns="http://www.w3.org/2000/svg" xmlns:xlink="http://www.w3.org/1999/xlink" x="0px" y="0px"
	 width="640px" height="480px" viewBox="0 0 640 480" enable-background="new 0 0 640 480" xml:space="preserve">
<g>
	<g>
		<path fill="none" stroke="#000000" stroke-width="10" d="M208.337,315.831c0,0,50.791,30.299,116.104,20.858
			c32.183-4.646,61.648-20.96,78.088-40.277c48.908-53.839,40.071-120.773,40.071-120.773l28.769-26.714l-26.714,4.11l18.494-24.659
			l-34.477,12.33c0,0-22.855-23.072-47.001-23.072c-22.696,0-40.676,15.618-46.955,34.112s1.027,34.169,1.027,34.169
			s-41.521-0.183-62.676-10.583c-21.828-10.743-52.401-42.845-52.401-42.845s-7.809,12.33-6.37,27.89
			c0.639,6.85,3.79,17.935,8.631,26.303s14.179,17.73,14.179,17.73l-29.797-6.165c0,0,6.987,27.182,17.467,36.989
			c10.48,9.807,28.769,14.385,28.769,14.385l-24.659,8.22c0,0,8.425,13.62,18.494,20.549c10.069,6.93,34.934,16.44,34.934,16.44
			s-14.179,14.031-28.769,17.467C238.955,315.729,208.337,315.831,208.337,315.831"/>
	</g>
	<g>
		<path fill="none" stroke="#000000" stroke-width="10" d="M331.999,436.357c116.44,0,210.823-94.394,210.823-210.823
			c0-116.44-94.384-210.823-210.823-210.823s-210.823,94.384-210.823,210.823C121.175,341.963,215.559,436.357,331.999,436.357z"/>
	</g>
</g>
</svg>
